<mxfile host="app.diagrams.net" modified="2020-04-16T22:40:26.172Z" agent="5.0 (X11; Linux x86_64) AppleWebKit/537.36 (KHTML, like Gecko) Chrome/80.0.3987.163 Safari/537.36" etag="twzvJwYrInTlq8OwYtTs" version="12.9.13" type="github">
  <diagram name="Page-1" id="e7e014a7-5840-1c2e-5031-d8a46d1fe8dd">
    <mxGraphModel dx="801" dy="434" grid="1" gridSize="10" guides="1" tooltips="1" connect="1" arrows="1" fold="1" page="1" pageScale="1" pageWidth="1169" pageHeight="826" background="#ffffff" math="0" shadow="0">
      <root>
        <mxCell id="0" />
        <mxCell id="1" parent="0" />
        <mxCell id="P_5spWbuhSDXQZLo86E_-65" value="Proveedores" style="swimlane;fontStyle=0;childLayout=stackLayout;horizontal=1;startSize=26;horizontalStack=0;resizeParent=1;resizeParentMax=0;resizeLast=0;collapsible=1;marginBottom=0;align=center;fontSize=14;labelBackgroundColor=#00FF00;" parent="1" vertex="1">
          <mxGeometry x="80" y="150" width="160" height="308" as="geometry" />
        </mxCell>
        <mxCell id="P_5spWbuhSDXQZLo86E_-66" value="uniqueId" style="shape=partialRectangle;top=0;left=0;right=0;bottom=1;align=left;verticalAlign=middle;fillColor=none;spacingLeft=34;spacingRight=4;overflow=hidden;rotatable=0;points=[[0,0.5],[1,0.5]];portConstraint=eastwest;dropTarget=0;fontStyle=5;fontSize=12;" parent="P_5spWbuhSDXQZLo86E_-65" vertex="1">
          <mxGeometry y="26" width="160" height="30" as="geometry" />
        </mxCell>
        <mxCell id="P_5spWbuhSDXQZLo86E_-67" value="PK" style="shape=partialRectangle;top=0;left=0;bottom=0;fillColor=none;align=left;verticalAlign=middle;spacingLeft=4;spacingRight=4;overflow=hidden;rotatable=0;points=[];portConstraint=eastwest;part=1;fontSize=12;" parent="P_5spWbuhSDXQZLo86E_-66" vertex="1" connectable="0">
          <mxGeometry width="30" height="30" as="geometry" />
        </mxCell>
        <mxCell id="P_5spWbuhSDXQZLo86E_-68" value="nombre&#xa;" style="shape=partialRectangle;top=0;left=0;right=0;bottom=0;align=left;verticalAlign=top;fillColor=none;spacingLeft=34;spacingRight=4;overflow=hidden;rotatable=0;points=[[0,0.5],[1,0.5]];portConstraint=eastwest;dropTarget=0;fontSize=12;" parent="P_5spWbuhSDXQZLo86E_-65" vertex="1">
          <mxGeometry y="56" width="160" height="26" as="geometry" />
        </mxCell>
        <mxCell id="P_5spWbuhSDXQZLo86E_-69" value="" style="shape=partialRectangle;top=0;left=0;bottom=0;fillColor=none;align=left;verticalAlign=top;spacingLeft=4;spacingRight=4;overflow=hidden;rotatable=0;points=[];portConstraint=eastwest;part=1;fontSize=12;" parent="P_5spWbuhSDXQZLo86E_-68" vertex="1" connectable="0">
          <mxGeometry width="30" height="26" as="geometry" />
        </mxCell>
        <mxCell id="P_5spWbuhSDXQZLo86E_-70" value="legal" style="shape=partialRectangle;top=0;left=0;right=0;bottom=0;align=left;verticalAlign=top;fillColor=none;spacingLeft=34;spacingRight=4;overflow=hidden;rotatable=0;points=[[0,0.5],[1,0.5]];portConstraint=eastwest;dropTarget=0;fontSize=12;" parent="P_5spWbuhSDXQZLo86E_-65" vertex="1">
          <mxGeometry y="82" width="160" height="26" as="geometry" />
        </mxCell>
        <mxCell id="P_5spWbuhSDXQZLo86E_-71" value="" style="shape=partialRectangle;top=0;left=0;bottom=0;fillColor=none;align=left;verticalAlign=top;spacingLeft=4;spacingRight=4;overflow=hidden;rotatable=0;points=[];portConstraint=eastwest;part=1;fontSize=12;" parent="P_5spWbuhSDXQZLo86E_-70" vertex="1" connectable="0">
          <mxGeometry width="30" height="26" as="geometry" />
        </mxCell>
        <mxCell id="P_5spWbuhSDXQZLo86E_-72" value="iva&#xa;&#xa;cuit&#xa;&#xa;ingresosBrutos&#xa;&#xa;teléfonos(fax)&#xa;&#xa;email&#xa;&#xa;id_localidad&#xa;" style="shape=partialRectangle;top=0;left=0;right=0;bottom=0;align=left;verticalAlign=top;fillColor=none;spacingLeft=34;spacingRight=4;overflow=hidden;rotatable=0;points=[[0,0.5],[1,0.5]];portConstraint=eastwest;dropTarget=0;fontSize=12;" parent="P_5spWbuhSDXQZLo86E_-65" vertex="1">
          <mxGeometry y="108" width="160" height="192" as="geometry" />
        </mxCell>
        <mxCell id="P_5spWbuhSDXQZLo86E_-73" value="&#xa;&#xa;&#xa;&#xa;&#xa;&#xa;&#xa;&#xa;&#xa;&#xa;FK" style="shape=partialRectangle;top=0;left=0;bottom=0;fillColor=none;align=left;verticalAlign=top;spacingLeft=4;spacingRight=4;overflow=hidden;rotatable=0;points=[];portConstraint=eastwest;part=1;fontSize=12;" parent="P_5spWbuhSDXQZLo86E_-72" vertex="1" connectable="0">
          <mxGeometry width="30" height="192" as="geometry" />
        </mxCell>
        <mxCell id="d-uplIfQZHYLifrwa2tD-13" value="" style="line;strokeWidth=1;fillColor=none;align=left;verticalAlign=middle;spacingTop=-1;spacingLeft=3;spacingRight=3;rotatable=0;labelPosition=right;points=[];portConstraint=eastwest;fontSize=12;labelBackgroundColor=#004C99;opacity=80;" vertex="1" parent="P_5spWbuhSDXQZLo86E_-65">
          <mxGeometry y="300" width="160" height="8" as="geometry" />
        </mxCell>
        <mxCell id="d-uplIfQZHYLifrwa2tD-16" value="Empresa" style="swimlane;fontStyle=0;childLayout=stackLayout;horizontal=1;startSize=26;horizontalStack=0;resizeParent=1;resizeParentMax=0;resizeLast=0;collapsible=1;marginBottom=0;align=center;fontSize=14;labelBackgroundColor=#00FF00;" vertex="1" parent="1">
          <mxGeometry x="280" y="150" width="160" height="338" as="geometry" />
        </mxCell>
        <mxCell id="d-uplIfQZHYLifrwa2tD-17" value="uniqueId" style="shape=partialRectangle;top=0;left=0;right=0;bottom=1;align=left;verticalAlign=middle;fillColor=none;spacingLeft=34;spacingRight=4;overflow=hidden;rotatable=0;points=[[0,0.5],[1,0.5]];portConstraint=eastwest;dropTarget=0;fontStyle=5;fontSize=12;" vertex="1" parent="d-uplIfQZHYLifrwa2tD-16">
          <mxGeometry y="26" width="160" height="30" as="geometry" />
        </mxCell>
        <mxCell id="d-uplIfQZHYLifrwa2tD-18" value="PK" style="shape=partialRectangle;top=0;left=0;bottom=0;fillColor=none;align=left;verticalAlign=middle;spacingLeft=4;spacingRight=4;overflow=hidden;rotatable=0;points=[];portConstraint=eastwest;part=1;fontSize=12;" vertex="1" connectable="0" parent="d-uplIfQZHYLifrwa2tD-17">
          <mxGeometry width="30" height="30" as="geometry" />
        </mxCell>
        <mxCell id="d-uplIfQZHYLifrwa2tD-19" value="nombre&#xa;" style="shape=partialRectangle;top=0;left=0;right=0;bottom=0;align=left;verticalAlign=top;fillColor=none;spacingLeft=34;spacingRight=4;overflow=hidden;rotatable=0;points=[[0,0.5],[1,0.5]];portConstraint=eastwest;dropTarget=0;fontSize=12;" vertex="1" parent="d-uplIfQZHYLifrwa2tD-16">
          <mxGeometry y="56" width="160" height="26" as="geometry" />
        </mxCell>
        <mxCell id="d-uplIfQZHYLifrwa2tD-20" value="" style="shape=partialRectangle;top=0;left=0;bottom=0;fillColor=none;align=left;verticalAlign=top;spacingLeft=4;spacingRight=4;overflow=hidden;rotatable=0;points=[];portConstraint=eastwest;part=1;fontSize=12;" vertex="1" connectable="0" parent="d-uplIfQZHYLifrwa2tD-19">
          <mxGeometry width="30" height="26" as="geometry" />
        </mxCell>
        <mxCell id="d-uplIfQZHYLifrwa2tD-21" value="legal" style="shape=partialRectangle;top=0;left=0;right=0;bottom=0;align=left;verticalAlign=top;fillColor=none;spacingLeft=34;spacingRight=4;overflow=hidden;rotatable=0;points=[[0,0.5],[1,0.5]];portConstraint=eastwest;dropTarget=0;fontSize=12;" vertex="1" parent="d-uplIfQZHYLifrwa2tD-16">
          <mxGeometry y="82" width="160" height="26" as="geometry" />
        </mxCell>
        <mxCell id="d-uplIfQZHYLifrwa2tD-22" value="" style="shape=partialRectangle;top=0;left=0;bottom=0;fillColor=none;align=left;verticalAlign=top;spacingLeft=4;spacingRight=4;overflow=hidden;rotatable=0;points=[];portConstraint=eastwest;part=1;fontSize=12;" vertex="1" connectable="0" parent="d-uplIfQZHYLifrwa2tD-21">
          <mxGeometry width="30" height="26" as="geometry" />
        </mxCell>
        <mxCell id="d-uplIfQZHYLifrwa2tD-23" value="iva&#xa;&#xa;cuit&#xa;&#xa;ingresosBrutos&#xa;&#xa;teléfonos(fax)&#xa;&#xa;email&#xa;&#xa;id_localidad&#xa;&#xa;id_cliente&#xa;&#xa;id_proveedor&#xa; " style="shape=partialRectangle;top=0;left=0;right=0;bottom=0;align=left;verticalAlign=top;fillColor=none;spacingLeft=34;spacingRight=4;overflow=hidden;rotatable=0;points=[[0,0.5],[1,0.5]];portConstraint=eastwest;dropTarget=0;fontSize=12;" vertex="1" parent="d-uplIfQZHYLifrwa2tD-16">
          <mxGeometry y="108" width="160" height="222" as="geometry" />
        </mxCell>
        <mxCell id="d-uplIfQZHYLifrwa2tD-24" value="" style="shape=partialRectangle;top=0;left=0;bottom=0;fillColor=none;align=left;verticalAlign=top;spacingLeft=4;spacingRight=4;overflow=hidden;rotatable=0;points=[];portConstraint=eastwest;part=1;fontSize=12;" vertex="1" connectable="0" parent="d-uplIfQZHYLifrwa2tD-23">
          <mxGeometry width="30" height="222" as="geometry" />
        </mxCell>
        <mxCell id="d-uplIfQZHYLifrwa2tD-25" value="" style="line;strokeWidth=1;fillColor=none;align=left;verticalAlign=middle;spacingTop=-1;spacingLeft=3;spacingRight=3;rotatable=0;labelPosition=right;points=[];portConstraint=eastwest;fontSize=12;labelBackgroundColor=#004C99;" vertex="1" parent="d-uplIfQZHYLifrwa2tD-16">
          <mxGeometry y="330" width="160" height="8" as="geometry" />
        </mxCell>
        <mxCell id="d-uplIfQZHYLifrwa2tD-26" value="Clientes" style="swimlane;fontStyle=0;childLayout=stackLayout;horizontal=1;startSize=26;horizontalStack=0;resizeParent=1;resizeParentMax=0;resizeLast=0;collapsible=1;marginBottom=0;align=center;fontSize=14;labelBackgroundColor=#00FF00;" vertex="1" parent="1">
          <mxGeometry x="470" y="150" width="160" height="308" as="geometry" />
        </mxCell>
        <mxCell id="d-uplIfQZHYLifrwa2tD-27" value="uniqueId" style="shape=partialRectangle;top=0;left=0;right=0;bottom=1;align=left;verticalAlign=middle;fillColor=none;spacingLeft=34;spacingRight=4;overflow=hidden;rotatable=0;points=[[0,0.5],[1,0.5]];portConstraint=eastwest;dropTarget=0;fontStyle=5;fontSize=12;" vertex="1" parent="d-uplIfQZHYLifrwa2tD-26">
          <mxGeometry y="26" width="160" height="30" as="geometry" />
        </mxCell>
        <mxCell id="d-uplIfQZHYLifrwa2tD-28" value="PK" style="shape=partialRectangle;top=0;left=0;bottom=0;fillColor=none;align=left;verticalAlign=middle;spacingLeft=4;spacingRight=4;overflow=hidden;rotatable=0;points=[];portConstraint=eastwest;part=1;fontSize=12;" vertex="1" connectable="0" parent="d-uplIfQZHYLifrwa2tD-27">
          <mxGeometry width="30" height="30" as="geometry" />
        </mxCell>
        <mxCell id="d-uplIfQZHYLifrwa2tD-29" value="nombre&#xa;" style="shape=partialRectangle;top=0;left=0;right=0;bottom=0;align=left;verticalAlign=top;fillColor=none;spacingLeft=34;spacingRight=4;overflow=hidden;rotatable=0;points=[[0,0.5],[1,0.5]];portConstraint=eastwest;dropTarget=0;fontSize=12;" vertex="1" parent="d-uplIfQZHYLifrwa2tD-26">
          <mxGeometry y="56" width="160" height="26" as="geometry" />
        </mxCell>
        <mxCell id="d-uplIfQZHYLifrwa2tD-30" value="" style="shape=partialRectangle;top=0;left=0;bottom=0;fillColor=none;align=left;verticalAlign=top;spacingLeft=4;spacingRight=4;overflow=hidden;rotatable=0;points=[];portConstraint=eastwest;part=1;fontSize=12;" vertex="1" connectable="0" parent="d-uplIfQZHYLifrwa2tD-29">
          <mxGeometry width="30" height="26" as="geometry" />
        </mxCell>
        <mxCell id="d-uplIfQZHYLifrwa2tD-31" value="legal" style="shape=partialRectangle;top=0;left=0;right=0;bottom=0;align=left;verticalAlign=top;fillColor=none;spacingLeft=34;spacingRight=4;overflow=hidden;rotatable=0;points=[[0,0.5],[1,0.5]];portConstraint=eastwest;dropTarget=0;fontSize=12;" vertex="1" parent="d-uplIfQZHYLifrwa2tD-26">
          <mxGeometry y="82" width="160" height="26" as="geometry" />
        </mxCell>
        <mxCell id="d-uplIfQZHYLifrwa2tD-32" value="" style="shape=partialRectangle;top=0;left=0;bottom=0;fillColor=none;align=left;verticalAlign=top;spacingLeft=4;spacingRight=4;overflow=hidden;rotatable=0;points=[];portConstraint=eastwest;part=1;fontSize=12;" vertex="1" connectable="0" parent="d-uplIfQZHYLifrwa2tD-31">
          <mxGeometry width="30" height="26" as="geometry" />
        </mxCell>
        <mxCell id="d-uplIfQZHYLifrwa2tD-33" value="iva&#xa;&#xa;cuit&#xa;&#xa;ingresosBrutos&#xa;&#xa;teléfonos(fax)&#xa;&#xa;email" style="shape=partialRectangle;top=0;left=0;right=0;bottom=0;align=left;verticalAlign=top;fillColor=none;spacingLeft=34;spacingRight=4;overflow=hidden;rotatable=0;points=[[0,0.5],[1,0.5]];portConstraint=eastwest;dropTarget=0;fontSize=12;" vertex="1" parent="d-uplIfQZHYLifrwa2tD-26">
          <mxGeometry y="108" width="160" height="192" as="geometry" />
        </mxCell>
        <mxCell id="d-uplIfQZHYLifrwa2tD-34" value="" style="shape=partialRectangle;top=0;left=0;bottom=0;fillColor=none;align=left;verticalAlign=top;spacingLeft=4;spacingRight=4;overflow=hidden;rotatable=0;points=[];portConstraint=eastwest;part=1;fontSize=12;" vertex="1" connectable="0" parent="d-uplIfQZHYLifrwa2tD-33">
          <mxGeometry width="30" height="192" as="geometry" />
        </mxCell>
        <mxCell id="d-uplIfQZHYLifrwa2tD-35" value="" style="line;strokeWidth=1;fillColor=none;align=left;verticalAlign=middle;spacingTop=-1;spacingLeft=3;spacingRight=3;rotatable=0;labelPosition=right;points=[];portConstraint=eastwest;fontSize=12;labelBackgroundColor=#004C99;" vertex="1" parent="d-uplIfQZHYLifrwa2tD-26">
          <mxGeometry y="300" width="160" height="8" as="geometry" />
        </mxCell>
      </root>
    </mxGraphModel>
  </diagram>
</mxfile>
